<svg width="138" height="157" viewBox="0 0 138 157" fill="none" xmlns="http://www.w3.org/2000/svg">
<path fill-rule="evenodd" clip-rule="evenodd" d="M72.2845 79.7937L137.978 43.9943V95.7525L119.901 106.104L137.978 121.2L119.019 131.552L101.824 116.456L90.8021 122.494L90.3612 147.079L72.2845 157V79.7937ZM89.9203 89.2827V105.673L120.342 88.4201V72.03L89.9203 89.2827Z" fill="#549FE3"/>
<path fill-rule="evenodd" clip-rule="evenodd" d="M68.978 0L137.978 37.3091L68.978 74.6182L-0.0219727 37.3091L68.978 0Z" fill="#A3D32F"/>
<path fill-rule="evenodd" clip-rule="evenodd" d="M-0.0222168 43.9943V121.2L65.6711 157V112.143L33.9267 94.0272V110.417L48.4762 119.044L48.0353 131.121L17.6136 113.868V72.03L65.6711 99.6344V79.7937L-0.0222168 43.9943Z" fill="#549FE3"/>
</svg>